Genre:Action | Adventure | Sci-Fi
Language:English
 
http://www.imdb.com/title/tt1104001/

Source:1080p.DTS.x264-CHD
Subtitles:Romana


Format : MPEG-4
Format profile : Base Media
Codec ID : isom
File size : 2.44 GiB
Duration : 2h 5mn
Overall bit rate : 2 795 Kbps


Video
Format profile : High@L4.1
Format settings, CABAC : Yes
Format settings, ReFrames : 3 frames
Codec ID : avc1
Codec ID/Info : Advanced Video Coding
Duration : 2h 5mn
Bit rate mode : Variable
Bit rate : 2 361 Kbps
Maximum bit rate : 13.6 Mbps
Width : 1 280 pixels
Height : 720 pixels
Display aspect ratio : 16:9
Frame rate mode : Constant
Frame rate : 23.976 fps
Color space : YUV
Chroma subsampling : 4:2:0
Bit depth : 8 bits
Scan type : Progressive
Bits/(Pixel*Frame) : 0.107
Stream size : 2.05 GiB (84%)
Writing library : x264


Audio
ID : 2
Format : AAC
Format/Info : Advanced Audio Codec
Format version : Version 4
Format profile : LC
Format settings, SBR : No
Codec ID : 40
Duration : 2h 5mn
Bit rate mode : Variable
Bit rate : 446 Kbps
Maximum bit rate : 560 Kbps
Channel(s) : 6 channels
Channel positions : Front: L C R, Side: L R, LFE
Sampling rate : 48.0 KHz
Stream size : 399 MiB (16%)


Plot:
A virtual-world worker looks to take down the Master Control Program
 
http://www.postimg.com/30000/photo-29928.jpg
 
http://www.postimg.com/30000/photo-29930.jpg
 
http://www.postimg.com/30000/photo-29931.jpg
 
http://www.postimg.com/30000/photo-29932.jpg
 
http://www.postimg.com/30000/photo-29934.jpg